<svg aria-hidden="true" style="width:0;height:0;position:absolute;overflow:hidden" xmlns="http://www.w3.org/2000/svg"><defs><symbol id="icon-github" viewBox="0 0 31 32"><path d="M10.369 24.837c0 .125-.144.225-.325.225-.206.019-.35-.081-.35-.225 0-.125.144-.225.325-.225.188-.019.35.081.35.225zm-1.944-.281c-.044.125.081.269.269.306.162.063.35 0 .387-.125s-.081-.269-.269-.325c-.162-.044-.344.019-.387.144zm2.763-.106c-.181.044-.306.163-.287.306.019.125.181.206.369.163.181-.044.306-.163.287-.288-.019-.119-.188-.2-.369-.181zM15.3.5C6.631.5 0 7.081 0 15.75c0 6.931 4.362 12.863 10.594 14.95.8.144 1.081-.35 1.081-.756 0-.387-.019-2.525-.019-3.837 0 0-4.375.938-5.294-1.863 0 0-.713-1.819-1.737-2.288 0 0-1.431-.981.1-.962 0 0 1.556.125 2.412 1.613 1.369 2.413 3.662 1.719 4.556 1.306.144-1 .55-1.694 1-2.106-3.494-.387-7.019-.894-7.019-6.906 0-1.719.475-2.581 1.475-3.681-.162-.406-.694-2.081.162-4.244 1.306-.406 4.313 1.688 4.313 1.688 1.25-.35 2.594-.531 3.925-.531s2.675.181 3.925.531c0 0 3.006-2.1 4.313-1.688.856 2.169.325 3.838.163 4.244 1 1.106 1.613 1.969 1.613 3.681 0 6.031-3.681 6.512-7.175 6.906.575.494 1.063 1.431 1.063 2.9 0 2.106-.019 4.712-.019 5.225 0 .406.288.9 1.081.756 6.25-2.075 10.488-8.006 10.488-14.938C31.001 7.081 23.97.5 15.301.5zM6.075 22.056c-.081.063-.063.206.044.325.1.1.244.144.325.063.081-.063.063-.206-.044-.325-.1-.1-.244-.144-.325-.063zM5.4 21.55c-.044.081.019.181.144.244.1.063.225.044.269-.044.044-.081-.019-.181-.144-.244-.125-.038-.225-.019-.269.044zm2.025 2.225c-.1.081-.063.269.081.387.144.144.325.163.406.063.081-.081.044-.269-.081-.387-.138-.144-.325-.163-.406-.063zm-.712-.919c-.1.063-.1.225 0 .369s.269.206.35.144c.1-.081.1-.244 0-.387-.088-.144-.25-.206-.35-.125z"/></symbol><symbol id="icon-linkedin" viewBox="0 0 28 32"><path d="M26 2H1.994C.894 2 0 2.906 0 4.019v23.962C0 29.094.894 30 1.994 30H26c1.1 0 2-.906 2-2.019V4.019C28 2.907 27.1 2 26 2zM8.463 26h-4.15V12.637h4.156V26zM6.388 10.813a2.407 2.407 0 0 1 0-4.812 2.41 2.41 0 0 1 2.406 2.406 2.403 2.403 0 0 1-2.406 2.406zM24.019 26h-4.15v-6.5c0-1.55-.031-3.544-2.156-3.544-2.162 0-2.494 1.688-2.494 3.431V26h-4.15V12.637h3.981v1.825h.056c.556-1.05 1.912-2.156 3.931-2.156 4.2 0 4.981 2.769 4.981 6.369V26z"/></symbol><symbol id="icon-telegram" viewBox="0 0 31 32"><path d="M15.5.5C6.94.5 0 7.44 0 16s6.94 15.5 15.5 15.5S31 24.56 31 16 24.06.5 15.5.5zm7.184 10.541c-.233 2.451-1.243 8.399-1.756 11.144-.217 1.162-.645 1.551-1.059 1.589-.9.083-1.584-.595-2.455-1.166-1.364-.894-2.135-1.451-3.459-2.324-1.53-1.008-.538-1.563.334-2.469.228-.237 4.194-3.844 4.271-4.172.01-.041.019-.194-.072-.274s-.224-.053-.321-.031q-.205.047-6.538 4.321-.928.637-1.681.621c-.553-.012-1.618-.313-2.409-.57-.971-.316-1.742-.482-1.675-1.018q.053-.419 1.153-.856 6.778-2.953 9.039-3.894c4.305-1.79 5.199-2.101 5.782-2.112.128-.002.415.03.601.18.12.105.201.251.22.417v.003a2.634 2.634 0 0 1 .026.619v-.009z"/></symbol><symbol id="icon-arrow" viewBox="0 0 32 32"><path d="M5.333 1.007 24.498 16 5.333 30.959 6.158 32l20.508-16L6.145 0l-.812 1.007z"/></symbol><symbol id="icon-close" viewBox="0 0 32 32"><path d="m8 8 14 14M8 22 22 8" stroke="#000" stroke-width="2"/></symbol><symbol id="icon-film" viewBox="0 0 32 32"><path stroke-linejoin="round" stroke-linecap="round" stroke-width="2.667" d="M26.427 2.667H5.574a2.907 2.907 0 0 0-2.907 2.907v20.853a2.907 2.907 0 0 0 2.907 2.907h20.853a2.907 2.907 0 0 0 2.907-2.907V5.574a2.907 2.907 0 0 0-2.907-2.907zm-17.094 0v26.667M22.667 2.667v26.667M2.667 16h26.667M2.667 9.333h6.667M2.667 22.667h6.667m13.333 0h6.667M22.667 9.333h6.667"/></symbol><symbol id="icon-heart" viewBox="0 0 32 32"><path d="m16 30.583-2.24-2.24C5.44 20.983 0 16.023 0 9.943c0-4.96 3.84-8.8 8.8-8.8 2.72 0 5.44 1.28 7.2 3.36 1.76-2.08 4.48-3.36 7.2-3.36 4.96 0 8.8 3.84 8.8 8.8 0 6.08-5.44 11.04-13.76 18.4L16 30.583z"/></symbol><symbol id="icon-search" viewBox="0 0 32 32"><path stroke-linejoin="round" stroke-linecap="round" stroke-width="2.667" d="M14.667 25.333c5.891 0 10.667-4.776 10.667-10.667S20.558 3.999 14.667 3.999 4 8.775 4 14.666s4.776 10.667 10.667 10.667zM28 28l-5.8-5.8"/></symbol></defs></svg>